<svg xmlns="http://www.w3.org/2000/svg" version="1.1" xmlns:xlink="http://www.w3.org/1999/xlink" xmlns:svgjs="http://svgjs.dev/svgjs" width="2000" height="1999" viewBox="0 0 2000 1999"><g transform="matrix(1,0,0,1,-0.431486880466764,-0.4312711370263287)"><svg viewBox="0 0 343 343" data-background-color="#ffccea" preserveAspectRatio="xMidYMid meet" height="1999" width="2000" xmlns="http://www.w3.org/2000/svg" xmlns:xlink="http://www.w3.org/1999/xlink"><g id="tight-bounds" transform="matrix(1,0,0,1,0.0740000000000407,0.07400000000001228)"><svg viewBox="0 0 342.85155851775386 342.85155851775386" height="342.85155851775386" width="342.85155851775386"><g><svg></svg></g><g><svg viewBox="0 0 342.85155851775386 342.85155851775386" height="342.85155851775386" width="342.85155851775386"><g><path d="M0 171.426c0-94.676 76.75-171.426 171.426-171.426 94.676 0 171.426 76.75 171.426 171.426 0 94.676-76.75 171.426-171.426 171.426-94.676 0-171.426-76.75-171.426-171.426zM171.426 336.668c91.261 0 165.242-73.982 165.242-165.242 0-91.261-73.982-165.242-165.242-165.243-91.261 0-165.242 73.982-165.243 165.243 0 91.261 73.982 165.242 165.243 165.242z" data-fill-palette-color="tertiary" fill="#6b7280" stroke="transparent"></path><ellipse rx="164.56874808852186" ry="164.56874808852186" cx="171.42577925887693" cy="171.42577925887693" fill="#6b7280" stroke="transparent" stroke-width="0" fill-opacity="1" data-fill-palette-color="tertiary"></ellipse></g><g transform="matrix(1,0,0,1,64.84655864529837,81.6703252250215)"><svg viewBox="0 0 213.1584412271571 179.51090806771086" height="179.51090806771086" width="213.1584412271571"><g><svg viewBox="0 0 213.1584412271571 179.51090806771086" height="179.51090806771086" width="213.1584412271571"><g><svg viewBox="0 0 213.1584412271571 179.51090806771086" height="179.51090806771086" width="213.1584412271571"><g transform="matrix(1,0,0,1,0,110.94494280630865)"><svg viewBox="0 0 213.1584412271571 68.56596526140221" height="68.56596526140221" width="213.1584412271571"><g id="textblocktransform"><svg viewBox="0 0 213.1584412271571 68.56596526140221" height="68.56596526140221" width="213.1584412271571" id="textblock"><g><svg viewBox="0 0 213.1584412271571 68.56596526140221" height="68.56596526140221" width="213.1584412271571"><g transform="matrix(1,0,0,1,0,0)"><svg width="213.1584412271571" viewBox="0.8 -38 119.99000000000001 38.6" height="68.56596526140221" data-palette-color="#ffccea"><path d="M0.8 0L0.8-2.3 3.45-2.3 14.8-34.9 19.55-34.9 30.85-2.3 33.5-2.3 33.5 0 21.7 0 21.7-2.3 26.2-2.3 23.1-11.35 9.5-11.35 6.4-2.3 10.9-2.3 10.9 0 0.8 0ZM16.2-31.25L10.2-13.75 22.35-13.75 16.5-31.25 16.2-31.25ZM35.55 0L35.55-2.3 39.25-2.3 39.25-34.15 35.55-34.8 35.55-36.55 43.35-38 43.35-2.3 47.05-2.3 47.05 0 35.55 0ZM50.55 0L50.55-2.3 54.25-2.3 54.25-34.15 50.55-34.8 50.55-36.55 58.35-38 58.35-2.3 62.05-2.3 62.05 0 50.55 0ZM77.74 0.6L77.74 0.6Q74.99 0.6 72.82-0.38 70.64-1.35 69.14-3.1 67.64-4.85 66.84-7.35 66.04-9.85 66.04-12.9L66.04-12.9Q66.04-15.9 66.92-18.38 67.79-20.85 69.32-22.65 70.84-24.45 72.94-25.43 75.04-26.4 77.54-26.4L77.54-26.4Q80.09-26.4 82.09-25.5 84.09-24.6 85.47-22.98 86.84-21.35 87.59-19.1 88.34-16.85 88.34-14.2L88.34-14.2 88.34-13.05 70.59-13.05 70.59-11.75Q70.59-7.5 72.72-5.05 74.84-2.6 78.39-2.6L78.39-2.6Q81.49-2.6 83.32-3.88 85.14-5.15 86.19-7.2L86.19-7.2 87.84-6.15Q87.34-4.85 86.47-3.63 85.59-2.4 84.34-1.48 83.09-0.55 81.44 0.03 79.79 0.6 77.74 0.6ZM70.59-15.95L70.59-15.35 84.04-15.35 84.04-15.85Q84.04-17.6 83.67-19.1 83.29-20.6 82.49-21.7 81.69-22.8 80.47-23.43 79.24-24.05 77.54-24.05L77.54-24.05Q75.84-24.05 74.54-23.45 73.24-22.85 72.37-21.75 71.49-20.65 71.04-19.18 70.59-17.7 70.59-15.95L70.59-15.95ZM93.09 0L93.09-2.3 96.79-2.3 96.79-22.55 93.09-23.2 93.09-24.9 100.79-26.4 100.79-21.9 100.99-21.9Q101.29-22.65 101.92-23.45 102.54-24.25 103.47-24.9 104.39-25.55 105.64-25.98 106.89-26.4 108.39-26.4L108.39-26.4Q113.04-26.4 115.07-23.98 117.09-21.55 117.09-16.7L117.09-16.7 117.09-2.3 120.79-2.3 120.79 0 109.29 0 109.29-2.3 112.99-2.3 112.99-16.35Q112.99-23.55 106.94-23.55L106.94-23.55Q105.84-23.55 104.77-23.25 103.69-22.95 102.82-22.3 101.94-21.65 101.42-20.7 100.89-19.75 100.89-18.45L100.89-18.45 100.89-2.3 104.59-2.3 104.59 0 93.09 0Z" opacity="1" transform="matrix(1,0,0,1,0,0)" fill="#ffccea" class="wordmark-text-0" data-fill-palette-color="quaternary" id="text-0"></path></svg></g></svg></g></svg></g></svg></g><g transform="matrix(1,0,0,1,59.20013861794963,0)"><svg viewBox="0 0 94.75816399125786 94.75816399125786" height="94.75816399125786" width="94.75816399125786"><g><svg xmlns="http://www.w3.org/2000/svg" xmlns:xlink="http://www.w3.org/1999/xlink" version="1.1" x="0" y="0" viewBox="3 3 58 58" style="enable-background:new 0 0 64 64;" xml:space="preserve" height="94.75816399125786" width="94.75816399125786" class="icon-icon-0" data-fill-palette-color="quaternary" id="icon-0"><g fill="#ffccea" data-fill-palette-color="quaternary"><path d="M32 13c-2.232 0-4.254 2.387-5.546 6h11.093C36.254 15.387 34.232 13 32 13z" fill="#ffccea" data-fill-palette-color="quaternary"></path><path d="M20.028 19h4.308c0.658-2.023 1.528-3.762 2.566-5.089C24.143 14.913 21.765 16.696 20.028 19z" fill="#ffccea" data-fill-palette-color="quaternary"></path><path d="M25.841 35h12.319c0.462-1.821 0.746-3.858 0.816-6H25.024C25.094 31.142 25.379 33.179 25.841 35z" fill="#ffccea" data-fill-palette-color="quaternary"></path><path d="M17.051 27h5.975c0.063-2.139 0.322-4.16 0.752-6h-5.034C17.783 22.812 17.194 24.845 17.051 27z" fill="#ffccea" data-fill-palette-color="quaternary"></path><rect x="43" y="55" width="2" height="6" fill="#ffccea" data-fill-palette-color="quaternary"></rect><path d="M38.159 21H25.841c-0.462 1.821-0.746 3.858-0.816 6h13.951C38.906 24.858 38.621 22.821 38.159 21z" fill="#ffccea" data-fill-palette-color="quaternary"></path><path d="M32 49c-11.58 0-21-9.421-21-21S20.42 7 32 7s21 9.421 21 21v1h-2.382L55 37.764 59.382 29H57v-1C57 14.215 45.785 3 32 3S7 14.215 7 28s11.215 25 25 25c5.278 0 10.279-1.605 14.53-4.653l-2.676-3.009C40.356 47.736 36.278 49 32 49z" fill="#ffccea" data-fill-palette-color="quaternary"></path><path d="M3 58c0 1.654 1.346 3 3 3h35v-6H6C4.346 55 3 56.346 3 58zM37 57h2v2h-2V57zM33 57h2v2h-2V57zM29 57h2v2h-2V57zM25 57h2v2h-2V57zM21 57h2v2h-2V57zM17 57h2v2h-2V57zM13 57h2v2h-2V57zM9 57h2v2H9V57zM7 59H5v-2h2V59z" fill="#ffccea" data-fill-palette-color="quaternary"></path><path d="M37.098 13.911c1.038 1.327 1.908 3.066 2.566 5.089h4.308C42.235 16.696 39.857 14.913 37.098 13.911z" fill="#ffccea" data-fill-palette-color="quaternary"></path><path d="M40.222 21c0.43 1.84 0.689 3.861 0.752 6h5.975c-0.143-2.155-0.732-4.188-1.693-6H40.222z" fill="#ffccea" data-fill-palette-color="quaternary"></path><path d="M40.222 35h5.034c0.961-1.812 1.55-3.845 1.693-6h-5.975C40.911 31.139 40.652 33.16 40.222 35z" fill="#ffccea" data-fill-palette-color="quaternary"></path><path d="M18.744 35h5.034c-0.43-1.84-0.689-3.861-0.752-6h-5.975C17.194 31.155 17.783 33.188 18.744 35z" fill="#ffccea" data-fill-palette-color="quaternary"></path><path d="M58 55H47v6h11c1.654 0 3-1.346 3-3S59.654 55 58 55z" fill="#ffccea" data-fill-palette-color="quaternary"></path><path d="M26.902 42.089c-1.038-1.327-1.908-3.066-2.566-5.089h-4.308C21.765 39.304 24.143 41.087 26.902 42.089z" fill="#ffccea" data-fill-palette-color="quaternary"></path><path d="M43.972 37h-4.308c-0.658 2.023-1.528 3.762-2.566 5.089C39.857 41.087 42.235 39.304 43.972 37z" fill="#ffccea" data-fill-palette-color="quaternary"></path><path d="M32 43c2.232 0 4.254-2.387 5.546-6H26.454C27.746 40.613 29.768 43 32 43z" fill="#ffccea" data-fill-palette-color="quaternary"></path></g></svg></g></svg></g><g></g></svg></g></svg></g></svg></g></svg></g><defs></defs></svg><rect width="342.85155851775386" height="342.85155851775386" fill="none" stroke="none" visibility="hidden"></rect></g></svg></g></svg>